<?xml version="1.0"?>
<svg xmlns="http://www.w3.org/2000/svg" xmlns:xlink="http://www.w3.org/1999/xlink" version="1.1" id="Capa_1" x="0px" y="0px" viewBox="0 0 512 512" style="enable-background:new 0 0 512 512;" xml:space="preserve" width="512px" height="512px" class=""><g><g>
	<g>
		<path d="M512,47c0-6.61-4.327-12.441-10.653-14.356c-6.326-1.917-13.161,0.536-16.828,6.036l-26.718,40.078    c-9.281,13.921-21.779,24.948-36.152,32.387c-24.02-26.936-57.992-45.153-92.935-49.895C322.235,26.442,291.657,0,255,0    c-36.66,0-67.241,26.447-73.716,61.259c-34.233,4.703-66.938,22.61-90.966,49.868c-14.359-7.438-26.845-18.459-36.119-32.37    L27.481,38.68c-3.667-5.5-10.5-7.952-16.828-6.036C4.327,34.559,0,40.39,0,47v150c0,24.785,6.72,48.026,18.424,68.01    c-3.252,24.909-2.767,49.946,1.439,74.65c-30.716,20.61-24.708,68.151,10.9,80.032L62.6,430.304    C73.31,477.495,115.748,512,165,512h182c49.252,0,91.69-34.505,102.399-81.696l31.84-10.613    c35.135-11.723,42.015-59.14,10.898-80.037c4.206-24.702,4.69-49.737,1.439-74.644C505.28,245.026,512,221.785,512,197V47z     M255,30c24.813,0,45,20.187,45,45s-20.187,45-45,45s-45-20.187-45-45S230.187,30,255,30z M181.854,91.513    C189.399,124.947,219.32,150,255,150c35.691,0,65.618-25.067,73.152-58.515c22.28,3.708,43.925,14.268,61.235,29.724    C385.31,121.73,381.175,122,377,122c-57.897,0-105,47.103-105,105c0,5.611,0.466,11.211,1.36,16.737    C267.473,242.61,261.327,242,255,242c-5.546,0-11.005,0.492-16.307,1.421C239.554,237.998,240,232.504,240,227    c0-57.897-47.103-105-105-105c-4.243,0-8.444-0.281-12.586-0.819C139.435,105.624,160.224,95.21,181.854,91.513z M302,302    c0,15.701-22.402,30-47,30c-4.92,0-9.682-0.567-14.156-1.593l-0.003-0.067c-0.076,0.004-0.151,0.01-0.227,0.014    c-28.746-6.709-42.827-31.51-17.2-49.49C231.609,275.419,242.833,272,255,272C279.598,272,302,286.299,302,302z M30,96.529    C53.711,131.291,92.858,152,135,152c41.355,0,75,33.645,75,75c0,11.096-2.363,21.724-7.015,31.646    c-9.216,7.071-15.946,15.95-19.659,25.66C169.795,295.741,152.772,302,135,302c-57.897,0-105-47.103-105-105V96.529z     M193.676,336.684c-21.453,4.752-42.225,12-62.115,21.732l-72.293-24.098c-3.357-1.127-6.783-1.838-10.222-2.158    c-1.762-11.102-2.678-22.275-2.734-33.467C70.049,319.423,101.082,332,135,332c17.07,0,33.641-4.125,48.481-11.875    C185.8,326.032,189.239,331.626,193.676,336.684z M347,482H165c-28.255,0-53.364-15.894-66.119-39.603l6.539,2.18    c36.895,12.195,62.401-4.194,74.581-9.355V437c0,8.284,6.716,15,15,15s15-6.716,15-15v-11.591c30.069-7.16,62.129-7.16,92.2,0.001    V437c0,8.284,6.516,15,14.8,15s15-6.716,15-15v-1.777c11.17,4.733,37.306,21.73,74.617,9.342l6.503-2.167    C400.364,466.106,375.255,482,347,482z M471.749,391.231l-74.602,24.868c-13.416,4.453-27.945,3.766-41.359-2.931    c-31.023-15.512-65.662-23.205-99.788-23.205c-34.19,0-68.816,7.719-99.784,23.202c-12.899,6.444-27.596,7.484-41.346,2.938    l-74.615-24.872c-7.773-2.593-12.143-11.021-9.486-18.986c2.599-7.803,11.018-12.154,18.979-9.479l74.564,24.854    c6.134,2.071,12.892,1.581,18.573-1.341c29.872-14.92,62.019-23.56,95.597-25.739c11.133,1.976,22.522,1.933,33.76-0.08    c34.073,2.042,66.682,10.725,96.891,25.829c5.607,2.842,12.3,3.35,18.362,1.394l74.771-24.923    c7.924-2.653,16.338,1.623,18.966,9.492C483.857,380.119,479.61,388.609,471.749,391.231z M317.863,336.583    c4.541-4.998,8.138-10.55,10.559-16.509C343.287,327.857,359.893,332,377,332c33.918,0,64.951-12.577,88.69-33.307    c-0.057,11.193-0.973,22.367-2.735,33.469c-3.427,0.319-6.843,1.025-10.191,2.146l-72.325,24.108    C360.406,348.614,339.478,341.333,317.863,336.583z M482.2,197c0,57.897-47.303,105-105.2,105    c-17.834,0-34.912-6.305-48.465-17.816c-3.746-9.368-10.366-17.757-19.052-24.54C304.516,249.439,302,238.469,302,227    c0-41.355,33.645-75,75-75c42.142,0,81.49-20.71,105.2-55.472V197z" data-original="#000000" class="active-path" data-old_color="#000000" fill="#383A46"/>
	</g>
</g><g>
	<g>
		<path d="M377,182c-24.813,0-45,20.187-45,45s20.187,45,45,45s45-20.187,45-45S401.813,182,377,182z M377,242    c-8.271,0-15-6.729-15-15s6.729-15,15-15s15,6.729,15,15S385.271,242,377,242z" data-original="#000000" class="active-path" data-old_color="#000000" fill="#383A46"/>
	</g>
</g><g>
	<g>
		<path d="M135,182c-24.813,0-45,20.187-45,45s20.188,45,45,45c24.813,0,45-20.187,45-45S159.813,182,135,182z M135,242    c-8.271,0-15-6.729-15-15s6.729-15,15-15s15,6.729,15,15S143.271,242,135,242z" data-original="#000000" class="active-path" data-old_color="#000000" fill="#383A46"/>
	</g>
</g><g>
	<g>
		<circle cx="255" cy="75" r="15" data-original="#000000" class="active-path" data-old_color="#000000" fill="#383A46"/>
	</g>
</g></g> </svg>
