<?xml version="1.0"?>
<svg xmlns="http://www.w3.org/2000/svg" id="Outline" viewBox="0 0 512 512" width="512" height="512"><path d="M408,128H280V24a8,8,0,0,0-8-8H240a8,8,0,0,0-8,8V128H104a8,8,0,0,0-8,8v32a8,8,0,0,0,8,8h8.938l39.124,312.992A8,8,0,0,0,160,496H352a8,8,0,0,0,7.938-7.008L399.062,176H408a8,8,0,0,0,8-8V136A8,8,0,0,0,408,128ZM248,32h16v96H248ZM135.108,224.362c33.679,3.25,75.251,28.4,115.545,52.778,41.493,25.106,80.774,48.862,113.3,50.728l-5.907,47.26c-28.7-4.666-65.811-27.629-101.836-49.93-42.032-26.019-81.841-50.649-115.123-53ZM167.062,480l-2-16H288a8,8,0,0,0,0-16H163.062L143.121,288.469c29.063,3.542,67.446,27.291,104.668,50.333,39.184,24.256,76.437,47.305,108.271,52.221L348.938,448H320a8,8,0,0,0,0,16h26.938l-2,16ZM365.944,311.946c-28.691-1.117-68.486-25.187-107.008-48.495-43.129-26.1-87.658-53.024-125.852-55.28L129.062,176H382.938ZM400,160H112V144H400Z"/></svg>
