<svg height="512" viewBox="0 0 60 60" width="512" xmlns="http://www.w3.org/2000/svg"><g id="038---Sushi-Rolls" fill="none"><g id="Color"><path id="Shape" d="m22.13 1.93-3.82 3.49c-4.54-1.19-10.31.36-10.31 3.09 0 1.32 1.46 2.49 3.61 3.06l-3.61 3.31c-4.19-1.44-7-4.08-7-6.88 0-4.16 6.27-7 14-7 2.4081439-.01966275 4.8074695.29329277 7.13.93z" fill="#e8edfc"/><path id="Shape" d="m29 8c0 5.58-11.17 10.26-21 6.87l3.61-3.31c1.105031.2986512 2.2453421.4466561 3.39.44 3.87 0 7-1.57 7-3.5 0-1.34-1.49-2.5-3.69-3.09l3.82-3.49c4.11 1.15 6.87 3.32 6.87 6.08z" fill="#e8edfc"/><path id="Shape" d="m22.13 1.93-.83.75c9.44 4 3.53 12.5-7.72 13.27 14.07.88 21.88-10.32 8.55-14.02z" fill="#cad9fc"/><path id="Shape" d="m13.52 11.92c-.6450761-.0648788-1.2838335-.1819286-1.91-.35l-.45.41c.7868083.0540203 1.5769532.0339319 2.36-.06z" fill="#cad9fc"/><path id="Shape" d="m27 32.88-3.61-3.31c2.15-.57 3.61-1.74 3.61-3.06 0-1.94-3.13-3.5-7-3.5-1.1162956-.0049211-2.2286422.132862-3.31.41l-3.82-3.49c5.316526-1.4214472 10.9382738-1.2053602 16.13.62 7.79 3.1 6 9.58-2 12.33z" fill="#e8edfc"/><path id="Shape" d="m29 20.55c-3.325949-1.2263247-6.873133-1.7374463-10.41-1.5 3.1.16 6.93.89 9.52 2.56 4.87 3.12 3.26 7.77-2 10.41l.94.86c7.95-2.74 9.77-9.21 1.95-12.33z" fill="#cad9fc"/><path id="Shape" d="m22 8.51c0 2.82-6 4.29-10.39 3.06-2.15-.57-3.61-1.74-3.61-3.06 0-1.94 3.13-3.51 7-3.51 1.1162956-.00492111 2.2286422.132862 3.31.41 2.2.59 3.69 1.76 3.69 3.1z" fill="#cad9fc"/><path id="Shape" d="m22.14 1.92-.01.01" fill="#cad9fc"/><path id="Shape" d="m29 8v12.54c-5.1856093-1.8212586-10.7997526-2.0373212-16.11-.62-1.7112857.420912-3.32005238 1.1827803-4.73 2.24-.19-.23-.13.59-.13-7.29 9.89 3.43 20.97-1.32 20.97-6.87z" fill="#7facfa"/><path id="Shape" d="m27 26.51c0 1.32-1.46 2.47-3.61 3.06-1.1054924.2952762-2.2457958.4399164-3.39.43-3.87 0-7-1.57-7-3.5 0-1.34 1.49-2.5 3.69-3.09 4.54-1.18 10.31.37 10.31 3.1z" fill="#cad9fc"/><g fill="#e8edfc"><path id="Shape" d="m58.23 23.73-54.29 32.87c-.7676758.632366-1.90263394.5226758-2.53499997-.245s-.52267581-1.902634.24499997-2.535l53.9-33.32c.5730305-.5128472 1.380548-.6714643 2.1049907-.4134741.7244428.2579903 1.2499301.8913203 1.3698108 1.6509286.1198806.7596084-.1850215 1.5239896-.7948015 1.9925455z"/><path id="Shape" d="m6 42.24v4.7l-2.06 1.66c-.7676758.632366-1.90263394.5226758-2.53499997-.245s-.52267581-1.902634.24499997-2.535z"/><path id="Shape" d="m58.23 4.73-24.5 19.8c-.5513746-1.2265166-1.4750825-2.2481935-2.64-2.92l24.46-20.11c.5730305-.51284723 1.380548-.67146433 2.1049907-.41347406.7244428.25799027 1.2499301.89132022 1.3698108 1.65092861.1198806.75960839-.1850215 1.52398954-.7948015 1.99254545z"/></g><path id="Shape" d="m33.73 24.53-.01.01" fill="#cad9fc"/><path id="Shape" d="m27 32.88v5.27l-21 13v-25.15c0 5.59 11.17 10.27 21 6.88z" fill="#cad9fc"/><path id="Shape" d="m34 38.4v11.6c0 3.46-2.81 6.32-7 7.83v-15.19z" fill="#7facfa"/><path id="Shape" d="m27 42.64v15.2c-7.19 2.62-16 .61-19.53-3.38z" fill="#cad9fc"/><path id="Shape" d="m34 26v7.81l-7 4.33v-5.26c4.19-1.44 7-4.08 7-6.88z" fill="#7facfa"/><path id="Shape" d="m27 32.88c-9.92 3.42-21-1.33-21-6.88 0-3.25 3.71-5.22 6.86-6.08l3.82 3.49c-2.19.59-3.68 1.76-3.68 3.1 0 2.82 6 4.29 10.39 3.06z" fill="#e8edfc"/><path id="Shape" d="m8.13 22.17c-1.27078108.8725014-2.0591878 2.290153-2.13 3.83v13c-3.06-1.62-5-4.08-5-7v-24c0 2.79 2.81 5.43 7 6.87 0 7.9-.06 7.07.13 7.3z" fill="#cad9fc"/></g><g id="Whites" fill="#fff"><path id="Shape" d="m1.65 45.82c-.76767578.632366-.877366 1.7673242-.24499997 2.535s1.76732417.877366 2.53499997.245l.41-.33c.00458075-.0231085.00458075-.0468915 0-.07-.50841332-.7662657-.35749011-1.7925436.35-2.38l4.3-3.58v-3.24c-3.06-1.62-5-4.08-5-7v-24c0-4.21 6-6.64 12.5-7-7.5-.33-15.5 2.16-15.5 7v24c0 2.87 1.94 5.33 5 7v3.28z"/><path id="Shape" d="m3.94 56.6.46-.28-.1-.12c-.50841332-.7662657-.35749011-1.7925436.35-2.38l4.85-3-.5.31v-4.19l-2.06 1.66c-.26842626.2208247-.5947591.3596897-.94.4v2.14l.5-.31-4.85 3c-.69891733.6490918-.77014857 1.7306958-.162393 2.4658411.60775557.7351454 1.68346073.8685601 2.452393.3041589z"/></g><g id="Layer_5" transform="translate(-1 -1)"><path id="Rectangle-path" d="m1 25.01h2v8h-2z" fill="#fff"/><path id="Shape" d="m23 9.5c0 1.93-3.13 3.5-7 3.5-.5010488-.0006426-1.0017251-.0273454-1.5-.08-3.15-.35-5.5-1.75-5.5-3.42s2.35-3.07 5.5-3.42c.4982749-.05265465.9989512-.07935738 1.5-.08 3.87 0 7 1.57 7 3.5z" fill="#cad9fc"/><path id="Shape" d="m28 27.5c0 1.93-3.13 3.5-7 3.5-.5010488-.0006426-1.0017251-.0273454-1.5-.08-3.15-.35-5.5-1.75-5.5-3.42s2.35-3.07 5.5-3.42c.4982749-.0526546.9989512-.0793574 1.5-.08 3.87 0 7 1.57 7 3.5z" fill="#cad9fc"/><path id="Shape" d="m20 9.5c0 1.67-2.35 3.07-5.5 3.42-3.15-.35-5.5-1.75-5.5-3.42s2.35-3.07 5.5-3.42c3.15.35 5.5 1.75 5.5 3.42z" fill="#e8edfc"/><path id="Shape" d="m25 27.5c0 1.67-2.35 3.07-5.5 3.42-3.15-.35-5.5-1.75-5.5-3.42s2.35-3.07 5.5-3.42c3.15.35 5.5 1.75 5.5 3.42z" fill="#e8edfc"/><g fill="#428dff"><path id="Shape" d="m2 30c-.55228475 0-1-.4477153-1-1s.44771525-1 1-1 1 .4477153 1 1-.44771525 1-1 1z"/><path id="Shape" d="m6 40.53v2.24l-4 3.29c-1.126674 1.0022832-1.25722541 2.716805-.29529781 3.8781237.9619276 1.1613188 2.670779 1.3522516 3.86529781.4318763l.43-.37v1.54c-2.87 1.81-3.91 2.46-4 2.52-1.20398072.9720212-1.3920211 2.7360192-.41999995 3.94.97202114 1.2039807 2.73601919 1.3920211 3.93999995.42l2.78-1.69c2.76 2.62 7.62 4.27 12.7 4.27 8.55 0 15-4.3 15-10v-11c24.79-15 23.77-14.41 23.87-14.49.676205-.5559256 1.0858466-1.3718332 1.1277562-2.2462187.0419095-.8743855-.2878202-1.7257313-.9077562-2.3437813-1.1047512-1.1066227-2.8634037-1.2098199-4.09-.24l-20 12.32c0-6.64 0-6.3-.14-7.12l24-19.39c.6683388-.55597204 1.0734607-1.36630503 1.1171586-2.23456314.0436978-.8682581-.2780178-1.71517153-.8871586-2.33543686-1.1271794-1.14830943-2.9483347-1.23544604-4.18-.2l-23.91 19.68c-.31-.17-.64-.34-1-.5v-11.9c0-4.64-6.31-8-15-8s-15 3.37-15 8v16c0 .5522847.44771525 1 1 1s1-.4477153 1-1v-11.59c1.42024936 1.3979767 3.12584794 2.4725038 5 3.15v6.29c-1.22290193 1.0387533-1.94941762 2.5462734-2 4.15v11.15c-1.78326247-1.1215752-2.90401982-3.0455419-3-5.15 0-.5522847-.44771525-1-1-1s-1 .4477153-1 1c0 3 1.82 5.67 5 7.53zm-1.69 8.29c-.33889584.1934064-.76788188.1141066-1.01524087-.1876714s-.24091902-.7379844.01524087-1.0323286l2.69-2.24v2.1zm3.69-17.41c3.58 3.72 11.49 5.85 19 3.81v3.37l-19 11.75zm2.09 24.24 16.91-10.24v12.72c-6.13 1.92-13.33.53-16.91-2.48zm23.91-4.65c0 2.61-1.94 4.88-5 6.34v-13.14l5-3zm23.19-28.74c.4390577-.3684043 1.087415-.3379446 1.49.07.2170089.2075224.3397533.494736.3397533.795s-.1227444.5874776-.3397533.795c-58.5 35.39-54.57 33.14-55 33.08-.29862537-.050207-.54430722-.262792-.63690374-.5511039-.09259651-.2883119-.01664206-.6041962.19690374-.8188961 56.33-34.83 53.85-33.28 53.95-33.37zm-28.19 15.09v-2.79c1.8741521-.6774962 3.5797506-1.7520233 5-3.15v2.85zm-.78-4.63-1.95-1.78c5.26-2.53 2.64-7.94-5.27-7.94-1.0080608-.0013022-2.0135057.1025938-3 .31l-2-1.86c1.6495433-.3015246 3.3231262-.4521471 5-.45 7.29 0 13 2.63 13 6 0 2.1-2.24 4.35-5.78 5.72zm-7.22-7.72c3.72 0 6 1.45 6 2.5s-2.28 2.5-6 2.5-6-1.46-6-2.5 2.28-2.5 6-2.5zm36.19-21.74c.3108211-.25187226.7324038-.31879075 1.1059421-.17554793.3735383.14324281.6422828.47488494.705.87000001.0627173.39511507-.090121.79367568-.4009421 1.04554792l-23.6 19c-.3746713-.5330677-.8185613-1.0139485-1.32-1.43zm-28.19 5.74c0 3.3-5.56 7-13 7-1.6848275.0034382-3.3638202-.1980409-5-.6l1.89-1.73c1.0217374.2218029 2.0644677.3324463 3.11.33 8 0 10.47-5.49 5.21-8l2.18-2c3.41 1.11 5.61 2.92 5.61 5zm-7 .5c0 1-2.28 2.5-6 2.5s-6-1.45-6-2.49 2.28-2.51 6-2.51 6 1.46 6 2.51zm-19-.5c0-3.36 5.71-6 13-6 1.6969115-.00581351 3.3907457.14482392 5.06.45l-2.06 1.87c-.9861407-.21076661-1.9915894-.31801447-3-.32-8 0-10.45 5.45-5.27 7.94l-1.95 1.78c-3.54-1.37-5.78-3.62-5.78-5.72zm7 8.21c7.55 2.05 15.44-.11 19-3.81v6.73c-5.53-1.75-13.91-1.59-19 1.27zm3.61 4.79 2.18 2c-5.33 2.51-2.74 8 5.21 8 1.0488745.0031687 2.0949966-.1074788 3.12-.33l1.88 1.74c-13.31 3.27-25.43-7.27-12.39-11.41z"/></g></g></g></svg>